<svg width="122" height="44" viewBox="0 0 122 44" fill="none" xmlns="http://www.w3.org/2000/svg">
<path d="M105.014 40.9776C102.203 40.9776 100.797 39.5953 100.797 36.8306C100.797 35.7529 101.078 34.5111 101.64 33.1054C102.249 31.6528 103.046 30.2002 104.03 28.7475C105.014 27.2949 106.115 25.9595 107.334 24.7412C108.552 23.476 109.794 22.4685 111.059 21.7188C112.371 20.9222 113.589 20.5239 114.714 20.5239C115.089 20.5239 115.346 20.6176 115.487 20.8051C115.674 20.9456 115.815 21.2034 115.909 21.5782C116.003 21.7657 116.073 21.9765 116.12 22.2108C116.167 22.4451 116.237 22.6794 116.331 22.9137C116.518 23.2417 116.682 23.5697 116.823 23.8977C116.963 24.2257 117.033 24.5772 117.033 24.952C117.033 25.4206 116.916 25.8423 116.682 26.2172C116.448 26.5452 116.167 26.8498 115.838 27.1309C115.37 27.5527 114.667 28.0915 113.73 28.7475C112.793 29.3567 111.762 29.9893 110.637 30.6453C109.559 31.2545 108.505 31.7933 107.474 32.2619C106.49 32.7305 105.694 33.0117 105.084 33.1054C104.663 33.7614 104.218 34.5814 103.749 35.5654C103.327 36.5026 103.116 37.3695 103.116 38.1661C103.116 38.5878 103.21 38.9627 103.398 39.2907C103.632 39.6187 103.983 39.7827 104.452 39.7827C105.202 39.7827 106.186 39.4313 107.404 38.7284C108.669 37.9786 109.981 37.0883 111.34 36.0575C112.699 34.9797 113.941 33.9488 115.065 32.9648C116.237 31.9339 117.104 31.1373 117.666 30.575L119.915 28.1852C120.196 27.9041 120.501 27.7635 120.829 27.7635C121.11 27.7635 121.251 27.8807 121.251 28.115C121.251 28.3961 120.852 28.9818 120.056 29.8722C119.259 30.7156 118.299 31.6762 117.174 32.7539C116.096 33.7848 115.089 34.7454 114.152 35.6357C113.214 36.4792 112.605 37.018 112.324 37.2523C111.34 38.0958 110.215 38.9392 108.95 39.7827C107.685 40.5793 106.373 40.9776 105.014 40.9776ZM106.279 31.2779C106.748 30.9968 107.451 30.5516 108.388 29.9424C109.372 29.3333 110.379 28.6538 111.41 27.9041C112.441 27.1544 113.308 26.4046 114.011 25.6549C114.761 24.9052 115.136 24.2491 115.136 23.6868C115.136 23.5463 115.112 23.4291 115.065 23.3354C115.018 23.2886 114.925 23.2651 114.784 23.2651C114.175 23.2651 113.449 23.5931 112.605 24.2491C111.762 24.9052 110.918 25.7018 110.075 26.6389C109.231 27.5292 108.458 28.4195 107.755 29.3099C107.099 30.1533 106.607 30.8093 106.279 31.2779Z" fill="#945F57"/>
<path d="M90.5769 42.3833C89.8741 42.3833 89.0775 42.1725 88.1872 41.7508C87.3437 41.3759 86.922 40.7667 86.922 39.9233C86.922 38.9393 87.2968 37.7678 88.0466 36.4089C88.7963 35.05 89.6866 33.6443 90.7175 32.1917C91.7484 30.6922 92.7324 29.263 93.6696 27.9041C94.6537 26.5452 95.3565 25.3972 95.7783 24.46C95.4971 24.6006 95.0285 24.8818 94.3725 25.3035C93.7633 25.6783 93.1542 26.0766 92.545 26.4984C91.9359 26.8732 91.4907 27.1778 91.2095 27.4121C89.1946 28.9116 87.4374 30.4579 85.9379 32.0511C84.4853 33.6443 83.0093 35.4717 81.5098 37.5335C81.1349 38.0958 80.7366 38.6815 80.3149 39.2907C79.94 39.8998 79.5417 40.4856 79.12 41.0479C78.9326 41.2822 78.6046 41.5165 78.136 41.7508C77.7143 41.985 77.316 42.1022 76.9411 42.1022C76.3319 42.1022 76.0273 41.7742 76.0273 41.1182C76.0273 40.5559 76.3085 39.689 76.8708 38.5175C77.48 37.3461 78.2297 36.0106 79.12 34.5111C80.0103 33.0117 80.9475 31.5356 81.9315 30.083C82.9156 28.5836 83.8059 27.2481 84.6025 26.0766C85.3991 24.8583 85.9614 23.9914 86.2894 23.476C86.1957 23.6166 85.9379 23.8743 85.5162 24.2492C85.0945 24.5772 84.6728 24.9286 84.251 25.3035C83.8762 25.6315 83.595 25.8658 83.4076 26.0063C82.5173 26.8498 81.6504 27.7167 80.8069 28.607C79.9635 29.4973 79.12 30.3876 78.2766 31.2779C78.1828 31.3716 77.9954 31.5122 77.7143 31.6996C77.48 31.8871 77.2691 31.9808 77.0817 31.9808C76.8474 31.9808 76.7302 31.8636 76.7302 31.6294C76.7302 31.3951 77.0582 30.903 77.7143 30.1533C78.3703 29.4036 79.1903 28.5133 80.1743 27.4824C81.1584 26.4515 82.1658 25.3972 83.1967 24.3194C84.2745 23.2417 85.2116 22.2811 86.0082 21.4377C86.8048 20.5942 87.3437 20.0085 87.6249 19.6805C88.0934 19.0713 88.5855 18.5793 89.1009 18.2044C89.6632 17.8296 90.3192 17.6421 91.069 17.6421C91.4907 17.6421 92.0061 17.853 92.6153 18.2747C93.2245 18.6496 93.529 19.0947 93.529 19.6102C93.529 19.7976 93.4822 19.9148 93.3885 19.9616C91.9827 21.1331 90.6004 22.5154 89.2415 24.1086C87.9294 25.7018 86.6877 27.3418 85.5162 29.0287C84.3448 30.7156 83.267 32.2854 82.283 33.738C83.4076 32.4728 84.6728 31.2311 86.0785 30.0127C87.4843 28.7476 88.8432 27.5761 90.1552 26.4984L95.1457 22.4217C95.4737 22.1405 95.8017 21.836 96.1297 21.5079C96.5046 21.1799 96.856 20.8988 97.184 20.6645C97.5589 20.4302 97.9572 20.3365 98.3789 20.3833C98.8475 20.3833 99.3161 20.3833 99.7847 20.3833C100.3 20.3833 100.792 20.5239 101.261 20.8051C101.776 21.0862 102.034 21.5314 102.034 22.1405C102.034 22.7497 101.87 23.2183 101.542 23.5463C101.261 23.8274 100.933 24.1554 100.558 24.5303C99.7612 25.28 98.7772 26.2641 97.6057 27.4824C96.4811 28.7007 95.3565 30.0127 94.2319 31.4185C93.1073 32.8242 92.1701 34.2534 91.4204 35.706C90.6707 37.1118 90.2958 38.4238 90.2958 39.6421C90.2958 39.7827 90.2958 39.9233 90.2958 40.0639C90.2958 40.2044 90.3192 40.345 90.3661 40.4856C91.3501 40.1107 92.4279 39.5016 93.5993 38.6581C94.8177 37.7678 96.036 36.7838 97.2543 35.706C98.4726 34.6283 99.5972 33.5505 100.628 32.4728C101.706 31.3951 102.596 30.4345 103.299 29.591C103.393 29.4973 103.487 29.3802 103.58 29.2396C103.721 29.099 103.885 29.0287 104.072 29.0287C104.307 29.0287 104.424 29.1927 104.424 29.5207C104.424 29.7082 104.353 29.919 104.213 30.1533C103.323 31.3248 102.128 32.7071 100.628 34.3003C99.1286 35.8935 97.5823 37.4164 95.9891 38.869C94.3959 40.2747 92.9667 41.3525 91.7016 42.1022C91.3735 42.2896 90.9987 42.3833 90.5769 42.3833Z" fill="#945F57"/>
<path d="M64.5884 40.9776C61.7769 40.9776 60.3711 39.5953 60.3711 36.8306C60.3711 35.7529 60.6522 34.5112 61.2145 33.1054C61.8237 31.6528 62.6203 30.2002 63.6043 28.7476C64.5884 27.295 65.6895 25.9595 66.9079 24.7412C68.1262 23.476 69.368 22.4686 70.6331 21.7188C71.9452 20.9222 73.1635 20.5239 74.2881 20.5239C74.663 20.5239 74.9207 20.6177 75.0613 20.8051C75.2487 20.9457 75.3893 21.2034 75.483 21.5783C75.5767 21.7657 75.647 21.9765 75.6939 22.2108C75.7407 22.4451 75.811 22.6794 75.9047 22.9137C76.0922 23.2417 76.2562 23.5697 76.3967 23.8977C76.5373 24.2258 76.6076 24.5772 76.6076 24.9521C76.6076 25.4206 76.4905 25.8424 76.2562 26.2172C76.0219 26.5452 75.7407 26.8498 75.4127 27.131C74.9441 27.5527 74.2413 28.0916 73.3041 28.7476C72.3669 29.3567 71.336 29.9893 70.2114 30.6453C69.1337 31.2545 68.0793 31.7934 67.0484 32.262C66.0644 32.7305 65.2678 33.0117 64.6587 33.1054C64.2369 33.7614 63.7918 34.5814 63.3232 35.5655C62.9015 36.5026 62.6906 37.3695 62.6906 38.1661C62.6906 38.5878 62.7843 38.9627 62.9717 39.2907C63.206 39.6187 63.5575 39.7827 64.0261 39.7827C64.7758 39.7827 65.7598 39.4313 66.9782 38.7284C68.2433 37.9787 69.5554 37.0884 70.9143 36.0575C72.2732 34.9797 73.5149 33.9489 74.6396 32.9648C75.811 31.9339 76.6779 31.1374 77.2402 30.5751L79.4894 28.1853C79.7706 27.9041 80.0752 27.7636 80.4032 27.7636C80.6843 27.7636 80.8249 27.8807 80.8249 28.115C80.8249 28.3961 80.4266 28.9819 79.63 29.8722C78.8334 30.7156 77.8728 31.6762 76.7482 32.754C75.6704 33.7849 74.663 34.7454 73.7258 35.6358C72.7886 36.4792 72.1795 37.0181 71.8983 37.2524C70.9143 38.0958 69.7897 38.9393 68.5245 39.7827C67.2593 40.5793 65.9473 40.9776 64.5884 40.9776ZM65.8536 31.2779C66.3221 30.9968 67.025 30.5516 67.9622 29.9425C68.9462 29.3333 69.9537 28.6539 70.9846 27.9041C72.0155 27.1544 72.8823 26.4047 73.5852 25.6549C74.335 24.9052 74.7098 24.2492 74.7098 23.6869C74.7098 23.5463 74.6864 23.4292 74.6396 23.3354C74.5927 23.2886 74.499 23.2652 74.3584 23.2652C73.7492 23.2652 73.0229 23.5932 72.1795 24.2492C71.336 24.9052 70.4926 25.7018 69.6491 26.639C68.8056 27.5293 68.0325 28.4196 67.3296 29.3099C66.6736 30.1533 66.1816 30.8093 65.8536 31.2779Z" fill="#945F57"/>
<path d="M51.0323 42.4536C50.2825 42.4536 49.4859 42.0787 48.6425 41.329C47.8459 40.5324 47.4476 39.7593 47.4476 39.0095C47.4476 38.0723 47.7756 37.018 48.4316 35.8466C49.0876 34.6283 49.8608 33.4568 50.7511 32.3322C51.6414 31.2076 52.4146 30.247 53.0706 29.4504C53.7266 28.607 54.0546 28.0447 54.0546 27.7635V27.6229C53.6329 27.2481 53.2346 26.8966 52.8597 26.5686C52.4849 26.1938 51.9694 26.0063 51.3134 26.0063C50.8448 26.0063 50.2357 26.2875 49.4859 26.8498C48.783 27.4121 48.0567 28.0681 47.307 28.8178C46.5573 29.5676 45.8778 30.2704 45.2686 30.9265C44.6595 31.5825 44.2143 32.0276 43.9332 32.2619C43.7457 32.4493 43.5583 32.5665 43.3709 32.6134C43.2303 32.6602 43.1132 32.6836 43.0194 32.6836C42.832 32.6836 42.7383 32.5899 42.7383 32.4025C42.7383 32.2151 42.832 32.0276 43.0194 31.8402C43.7692 30.8562 44.6361 29.8487 45.6201 28.8178C46.6041 27.7869 47.4944 26.8498 48.291 26.0063C49.0876 25.116 49.5562 24.4834 49.6968 24.1086C50.0717 23.0308 50.4465 22.0702 50.8214 21.2268C51.2431 20.3833 51.8991 19.5867 52.7895 18.837C53.1643 18.4621 53.6095 18.1576 54.1249 17.9233C54.6404 17.689 55.1558 17.5718 55.6713 17.5718C56.1399 17.5718 56.5147 17.7124 56.7959 17.9935C57.1239 18.2278 57.2879 18.6027 57.2879 19.1181C57.2879 19.6804 57.0302 20.2427 56.5147 20.8051C56.0461 21.3674 55.4838 21.9062 54.8278 22.4217C54.1718 22.8902 53.5861 23.312 53.0706 23.6868C52.602 24.0617 52.3912 24.3663 52.438 24.6006C52.7192 24.788 53.258 25.0223 54.0546 25.3035C54.8981 25.5846 55.4838 25.7252 55.8118 25.7252C56.1867 25.7252 56.5382 25.6549 56.8662 25.5143C57.1942 25.3737 57.5222 25.3035 57.8502 25.3035C58.3188 25.3035 58.7874 25.444 59.256 25.7252C59.7245 26.0063 59.9588 26.4281 59.9588 26.9904C59.9588 27.4589 59.7714 27.9041 59.3965 28.3258C59.0685 28.7007 58.7171 29.0287 58.3422 29.3098C57.7799 29.7316 57.0302 30.3642 56.093 31.2076C55.1558 32.0511 54.1952 32.9882 53.2112 34.0191C52.274 35.05 51.454 36.0809 50.7511 37.1118C50.0951 38.0958 49.7671 38.9627 49.7671 39.7124C49.7671 39.8998 49.8139 40.0873 49.9077 40.2747C49.9545 40.3216 50.0482 40.345 50.1888 40.345C51.126 40.345 52.1803 39.9233 53.3518 39.0798C54.5232 38.2364 55.6947 37.2055 56.8662 35.9872C58.0845 34.7688 59.2091 33.5739 60.24 32.4025C61.3177 31.1842 62.2315 30.247 62.9812 29.591C63.0749 29.4973 63.1921 29.4036 63.3327 29.3098C63.4732 29.2161 63.6138 29.1693 63.7544 29.1693C63.9887 29.1693 64.1058 29.3333 64.1058 29.6613C64.1058 29.8487 63.7778 30.3173 63.1218 31.067C62.5126 31.8168 61.716 32.7071 60.732 33.738C59.748 34.7688 58.7171 35.8232 57.6393 36.9009C56.6084 37.9786 55.6478 38.9392 54.7575 39.7827C53.8672 40.5793 53.2346 41.1416 52.8597 41.4696C52.3443 41.8913 51.9694 42.149 51.7351 42.2427C51.5008 42.3833 51.2666 42.4536 51.0323 42.4536Z" fill="#945F57"/>
<path d="M31.2954 40.9776C28.4839 40.9776 27.0781 39.5953 27.0781 36.8306C27.0781 35.7529 27.3593 34.5112 27.9216 33.1054C28.5307 31.6528 29.3273 30.2002 30.3114 28.7476C31.2954 27.295 32.3966 25.9595 33.6149 24.7412C34.8332 23.476 36.075 22.4686 37.3402 21.7188C38.6522 20.9222 39.8705 20.5239 40.9951 20.5239C41.37 20.5239 41.6277 20.6177 41.7683 20.8051C41.9557 20.9457 42.0963 21.2034 42.19 21.5783C42.2838 21.7657 42.354 21.9765 42.4009 22.2108C42.4478 22.4451 42.518 22.6794 42.6118 22.9137C42.7992 23.2417 42.9632 23.5697 43.1038 23.8977C43.2444 24.2258 43.3146 24.5772 43.3146 24.9521C43.3146 25.4206 43.1975 25.8424 42.9632 26.2172C42.7289 26.5452 42.4478 26.8498 42.1197 27.131C41.6512 27.5527 40.9483 28.0916 40.0111 28.7476C39.0739 29.3567 38.043 29.9893 36.9184 30.6453C35.8407 31.2545 34.7864 31.7934 33.7555 32.262C32.7714 32.7305 31.9749 33.0117 31.3657 33.1054C30.944 33.7614 30.4988 34.5814 30.0302 35.5655C29.6085 36.5026 29.3976 37.3695 29.3976 38.1661C29.3976 38.5878 29.4913 38.9627 29.6788 39.2907C29.9131 39.6187 30.2645 39.7827 30.7331 39.7827C31.4828 39.7827 32.4669 39.4313 33.6852 38.7284C34.9504 37.9787 36.2624 37.0884 37.6213 36.0575C38.9802 34.9797 40.222 33.9489 41.3466 32.9648C42.518 31.9339 43.3849 31.1374 43.9472 30.5751L46.1964 28.1853C46.4776 27.9041 46.7822 27.7636 47.1102 27.7636C47.3913 27.7636 47.5319 27.8807 47.5319 28.115C47.5319 28.3961 47.1336 28.9819 46.337 29.8722C45.5404 30.7156 44.5798 31.6762 43.4552 32.754C42.3775 33.7849 41.37 34.7454 40.4328 35.6358C39.4957 36.4792 38.8865 37.0181 38.6054 37.2524C37.6213 38.0958 36.4967 38.9393 35.2315 39.7827C33.9663 40.5793 32.6543 40.9776 31.2954 40.9776ZM32.5606 31.2779C33.0292 30.9968 33.732 30.5516 34.6692 29.9425C35.6533 29.3333 36.6607 28.6539 37.6916 27.9041C38.7225 27.1544 39.5894 26.4047 40.2923 25.6549C41.042 24.9052 41.4169 24.2492 41.4169 23.6869C41.4169 23.5463 41.3934 23.4292 41.3466 23.3354C41.2997 23.2886 41.206 23.2652 41.0654 23.2652C40.4563 23.2652 39.73 23.5932 38.8865 24.2492C38.043 24.9052 37.1996 25.7018 36.3561 26.639C35.5127 27.5293 34.7395 28.4196 34.0366 29.3099C33.3806 30.1533 32.8886 30.8093 32.5606 31.2779Z" fill="#945F57"/>
<path d="M10.8243 44C10.4963 44 10.1449 44 9.77003 44C9.44201 44 9.16086 43.9766 8.92657 43.9297C8.50484 43.8829 7.80196 43.7188 6.81793 43.4377C5.8339 43.1565 4.80301 42.7817 3.72526 42.3131C2.69437 41.8914 1.80406 41.3994 1.05432 40.8371C0.35144 40.2748 0 39.6656 0 39.0096C0 38.7284 0.164006 38.5879 0.492016 38.5879C1.28861 38.5879 2.08521 38.7987 2.88181 39.2204C3.72526 39.6422 4.59215 39.8999 5.48246 39.9936C5.85733 40.0405 6.25563 40.0873 6.67736 40.1342C7.14594 40.1342 7.66139 40.1342 8.22369 40.1342C9.39516 40.1342 10.6135 40.0405 11.8787 39.853C13.1438 39.6187 14.2216 39.2204 15.1119 38.6581C16.0022 38.0958 16.4708 37.2993 16.5177 36.2684C16.5177 35.6124 16.0959 34.7923 15.2525 33.8083C14.409 32.7774 13.3313 31.606 12.0192 30.2939C10.7541 28.935 9.48887 27.459 8.22369 25.8658C6.95851 24.2258 5.88076 22.4686 4.99045 20.5942C4.14699 18.7199 3.72526 16.7753 3.72526 14.7604C3.72526 12.23 4.33442 10.0277 5.55275 8.15335C6.77107 6.27902 8.36427 4.75612 10.3323 3.58466C12.3004 2.36635 14.4559 1.47604 16.7988 0.913735C19.1418 0.304578 21.4378 0 23.687 0C24.8116 0 25.866 0.0702868 26.85 0.21086C28.1152 0.351436 29.4741 0.679444 30.9267 1.19489C32.4262 1.66347 33.7148 2.41321 34.7925 3.44409C35.8703 4.42811 36.4092 5.74015 36.4092 7.38019C36.4092 9.11395 35.8469 10.7774 34.7223 12.3706C33.6445 13.9638 32.309 15.3695 30.7158 16.5879C29.1695 17.7593 27.6466 18.6496 26.1471 19.2588C25.866 19.3994 25.5848 19.4696 25.3037 19.4696C25.0694 19.3759 24.9522 19.2588 24.9522 19.1182C25.1865 18.6028 25.7488 17.8999 26.6391 17.0096C27.5763 16.0724 28.5838 15.0415 29.6615 13.9169C30.7861 12.7923 31.7467 11.5974 32.5433 10.3323C33.3868 9.02023 33.8085 7.73163 33.8085 6.46645C33.8085 5.623 33.5039 4.99041 32.8948 4.56869C32.2856 4.10011 31.5593 3.74867 30.7158 3.51437C29.9192 3.28008 29.2164 3.11608 28.6072 3.02236C28.326 2.97551 28.0449 2.95208 27.7637 2.95208C27.4826 2.95208 27.178 2.95208 26.85 2.95208C24.7414 2.95208 22.4687 3.32694 20.0321 4.07668C17.6423 4.77955 15.3696 5.78701 13.2141 7.09904C11.0586 8.41107 9.30144 9.98083 7.94254 11.8083C6.58364 13.5889 5.90419 15.5804 5.90419 17.7827C5.90419 19.0948 6.37277 20.5005 7.30995 22C8.24712 23.4526 9.41859 24.9521 10.8243 26.4984C12.2301 28.0447 13.6359 29.5911 15.0416 31.1374C16.4474 32.6368 17.6188 34.1129 18.556 35.5655C19.4932 36.9712 19.9618 38.2833 19.9618 39.5016C19.9618 40.6731 19.4463 41.5868 18.4154 42.2428C17.4314 42.8988 16.2131 43.344 14.7605 43.5783C13.3547 43.8594 12.0427 44 10.8243 44Z" fill="#945F57"/>
</svg>
