<svg width="36" height="36" viewBox="0 0 36 36" fill="none" xmlns="http://www.w3.org/2000/svg">
<path d="M20.8314 14.9022C22.4437 16.2175 23.25 16.8751 23.25 18C23.25 19.1248 22.4437 19.7824 20.8314 21.0978C20.3863 21.4609 19.9449 21.8028 19.5392 22.0876C19.1832 22.3375 18.7802 22.596 18.3629 22.8498C16.7543 23.8279 15.95 24.3171 15.2286 23.7756C14.5073 23.2341 14.4417 22.1004 14.3106 19.8333C14.2735 19.192 14.25 18.5635 14.25 18C14.25 17.4364 14.2735 16.8079 14.3106 16.1667C14.4417 13.8995 14.5073 12.7659 15.2286 12.2244C15.95 11.6829 16.7543 12.172 18.3629 13.1502C18.7802 13.404 19.1832 13.6625 19.5392 13.9124C19.9449 14.1972 20.3863 14.5391 20.8314 14.9022Z" stroke="#F19687" stroke-width="2.25"/>
<path d="M10.5 5.00673C12.7063 3.73046 15.2679 3 18 3C26.2842 3 33 9.71572 33 18C33 26.2842 26.2842 33 18 33C9.71572 33 3 26.2842 3 18C3 15.2679 3.73046 12.7063 5.00673 10.5" stroke="#F19687" stroke-width="2.25" stroke-linecap="round"/>
</svg>
