<svg width="35" height="35" viewBox="0 0 35 35" fill="none" xmlns="http://www.w3.org/2000/svg">
<path fill-rule="evenodd" clip-rule="evenodd" d="M5.52721 7.45202C4.55969 8.35042 3.91172 9.80816 3.91172 12.0949V22.0553C3.91172 24.3419 4.55969 25.7997 5.52721 26.6981C6.50904 27.6098 7.98833 28.1027 9.95911 28.1027H24.1883C26.159 28.1027 27.6383 27.6098 28.6202 26.6981C29.5877 25.7997 30.2357 24.3419 30.2357 22.0553V12.0949C30.2357 9.80816 29.5877 8.35042 28.6202 7.45202C27.6383 6.54032 26.159 6.04746 24.1883 6.04746H9.95911C7.98833 6.04746 6.50904 6.54032 5.52721 7.45202ZM4.07487 5.88795C5.58315 4.48742 7.66115 3.91309 9.95911 3.91309H24.1883C26.4863 3.91309 28.5643 4.48742 30.0725 5.88795C31.5951 7.30179 32.3701 9.40135 32.3701 12.0949V22.0553C32.3701 24.7489 31.5951 26.8484 30.0725 28.2622C28.5643 29.6628 26.4863 30.237 24.1883 30.237H9.95911C7.66115 30.237 5.58315 29.6628 4.07487 28.2622C2.55229 26.8484 1.77734 24.7489 1.77734 22.0553V12.0949C1.77734 9.40135 2.55229 7.30179 4.07487 5.88795Z" fill="#F19687"/>
<path fill-rule="evenodd" clip-rule="evenodd" d="M27.5488 10.402C27.9092 10.8684 27.8233 11.5386 27.357 11.899L19.4639 17.998C18.0547 19.0869 16.0881 19.0869 14.6788 17.998L6.78582 11.899C6.31943 11.5386 6.2335 10.8684 6.59388 10.402C6.95426 9.93564 7.62447 9.84971 8.09086 10.2101L15.9838 16.309C16.6244 16.8041 17.5184 16.8041 18.1588 16.309L26.0519 10.2101C26.5183 9.84971 27.1885 9.93564 27.5488 10.402Z" fill="#F19687"/>
</svg>
