<svg width="35" height="35" viewBox="0 0 35 35" fill="none" xmlns="http://www.w3.org/2000/svg">
<path d="M19.918 2.8457C19.918 2.8457 23.0481 3.13026 27.0318 7.11401C31.0156 11.0978 31.3001 14.2278 31.3001 14.2278" stroke="#F19687" stroke-width="2.13415" stroke-linecap="round"/>
<path d="M20.2109 7.87646C20.2109 7.87646 21.6195 8.2789 23.7321 10.3916C25.8448 12.5043 26.2473 13.9128 26.2473 13.9128" stroke="#F19687" stroke-width="2.13415" stroke-linecap="round"/>
<path d="M5.70073 11.2873C5.59781 14.0021 6.28489 18.6126 10.9097 23.2374C12.0254 24.3531 13.1404 25.2397 14.228 25.9412M7.87936 7.02487C9.8612 5.04302 13.0232 5.30931 14.2815 7.56401L15.2049 9.21859C16.0382 10.7118 15.7037 12.6705 14.3912 13.983C14.3912 13.983 12.7994 15.5751 15.6856 18.4615C18.571 21.3468 20.1641 19.7559 20.1641 19.7559C21.4766 18.4434 23.4353 18.1089 24.9285 18.9422L26.583 19.8656C28.8378 21.1239 29.104 24.2858 27.1223 26.2678C25.9314 27.4586 24.4725 28.3853 22.8598 28.4463C21.7017 28.4903 20.1984 28.3904 18.4963 27.9024" stroke="#F19687" stroke-width="2.13415" stroke-linecap="round"/>
</svg>
