<svg width="35" height="35" viewBox="0 0 35 35" fill="none" xmlns="http://www.w3.org/2000/svg">
<path d="M28.4557 14.2278C28.4557 25.61 17.0735 31.3011 17.0735 31.3011C17.0735 31.3011 5.69141 25.61 5.69141 14.2278C5.69141 11.2091 6.89059 8.31402 9.02516 6.17945C11.1597 4.04489 14.0548 2.8457 17.0735 2.8457C20.0923 2.8457 22.9874 4.04489 25.1219 6.17945C27.2565 8.31402 28.4557 11.2091 28.4557 14.2278Z" stroke="#F19687" stroke-width="2.13" stroke-linecap="round"/>
<path d="M17.073 18.4961C19.4303 18.4961 21.3413 16.5851 21.3413 14.2278C21.3413 11.8705 19.4303 9.95947 17.073 9.95947C14.7157 9.95947 12.8047 11.8705 12.8047 14.2278C12.8047 16.5851 14.7157 18.4961 17.073 18.4961Z" stroke="#F19687" stroke-width="2.13" stroke-linecap="round"/>
</svg>
